<svg viewBox="0 0 298.689 81.2203" width="5000px" height="1359.6131767231086px" xmlns="http://www.w3.org/2000/svg" xmlns:xlink="http://www.w3.org/1999/xlink" preserveAspectRatio="none"><defs></defs><style>.companyName {fill:#C6C6C6;fill-opacity:1;}.icon1 {fill:#C6C6C6;fill-opacity:1;}.icon2 {fill:#3C3C3C;fill-opacity:1;}.icon3 {fill:#5D5D5D;fill-opacity:1;}.shapeStroke-str {stroke:#C6C6C6;stroke-opacity:1;}.text {fill:#C6C6C6;fill-opacity:1;}</style><g opacity="1" transform="rotate(0 0 7.166499999999985)">
<svg width="64.2118" height="66.8873" x="0" y="7.166499999999985" version="1.1" preserveAspectRatio="none" viewBox="8 7.5 24 25">
  <g transform="matrix(1 0 0 1 0 0)" class="icon1"><path fill-rule="evenodd" clip-rule="evenodd" d="M12,10.5v-3H8v2h2v13c0,1.1,0.9,2,2,2v5h2.3c-0.2,0.3-0.3,0.6-0.3,1  c0,1.1,0.9,2,2,2c1.1,0,2-0.9,2-2c0-0.4-0.1-0.7-0.3-1h6.6c-0.2,0.3-0.3,0.6-0.3,1c0,1.1,0.9,2,2,2c1.1,0,2-0.9,2-2  c0-0.4-0.1-0.7-0.3-1H30v-2H14v-3h16c1.1,0,2-0.9,2-2v-12H12z M14,22.5h-2v-2h2V22.5z M14,18.5h-2v-2h2V18.5z M14,14.5h-2v-2h2V14.5  z M18,22.5h-2v-2h2V22.5z M18,18.5h-2v-2h2V18.5z M18,14.5h-2v-2h2V14.5z M22,22.5h-2v-2h2V22.5z M22,18.5h-2v-2h2V18.5z M22,14.5  h-2v-2h2V14.5z M26,22.5h-2v-2h2V22.5z M26,18.5h-2v-2h2V18.5z M26,14.5h-2v-2h2V14.5z M30,22.5h-2v-2h2V22.5z M30,18.5h-2v-2h2  V18.5z M30,14.5h-2v-2h2V14.5z"></path></g>
</svg>
</g><g opacity="1" transform="rotate(0 88.21669999999999 53.15149999999997)">
<svg width="142.9622" height="11.9441" x="88.21669999999999" y="53.15149999999997" version="1.1" preserveAspectRatio="none" viewBox="0.44 -30.88 465.84 38.92">
  <g transform="matrix(1 0 0 1 0 0)" class="text"><path d="M14.72-4.72L16.12-1.16Q15.24-0.44 13.98-0.08Q12.72 0.28 11.32 0.28L11.32 0.28Q7.80 0.28 5.88-1.56Q3.96-3.40 3.96-6.92L3.96-6.92L3.96-17.20L0.44-17.20L0.44-21.20L3.96-21.20L3.96-26.08L8.96-26.08L8.96-21.20L14.68-21.20L14.68-17.20L8.96-17.20L8.96-7.04Q8.96-5.48 9.72-4.66Q10.48-3.84 11.92-3.84L11.92-3.84Q13.60-3.84 14.72-4.72L14.72-4.72Z M36.36-21.60Q40.40-21.60 42.84-19.24Q45.28-16.88 45.28-12.24L45.28-12.24L45.28 0L40.28 0L40.28-11.60Q40.28-14.40 38.96-15.82Q37.64-17.24 35.20-17.24L35.20-17.24Q32.44-17.24 30.84-15.58Q29.24-13.92 29.24-10.80L29.24-10.80L29.24 0L24.24 0L24.24-29.68L29.24-29.68L29.24-18.88Q30.48-20.20 32.30-20.90Q34.12-21.60 36.36-21.60L36.36-21.60Z M75.92-10.56Q75.92-10.04 75.84-9.08L75.84-9.08L59.08-9.08Q59.52-6.72 61.38-5.34Q63.24-3.96 66-3.96L66-3.96Q69.52-3.96 71.80-6.28L71.80-6.28L74.48-3.20Q73.04-1.48 70.84-0.60Q68.64 0.28 65.88 0.28L65.88 0.28Q62.36 0.28 59.68-1.12Q57-2.52 55.54-5.02Q54.08-7.52 54.08-10.68L54.08-10.68Q54.08-13.80 55.50-16.30Q56.92-18.80 59.44-20.20Q61.96-21.60 65.12-21.60L65.12-21.60Q68.24-21.60 70.70-20.22Q73.16-18.84 74.54-16.34Q75.92-13.84 75.92-10.56L75.92-10.56ZM65.12-17.60Q62.72-17.60 61.06-16.18Q59.40-14.76 59.04-12.40L59.04-12.40L71.16-12.40Q70.84-14.72 69.20-16.16Q67.56-17.60 65.12-17.60L65.12-17.60Z M107.92-21.60Q112.64-21.60 115.14-19.34Q117.64-17.08 117.64-12.52L117.64-12.52L117.64 0L112.92 0L112.92-2.60Q112-1.20 110.30-0.46Q108.60 0.28 106.20 0.28L106.20 0.28Q103.80 0.28 102-0.54Q100.20-1.36 99.22-2.82Q98.24-4.28 98.24-6.12L98.24-6.12Q98.24-9 100.38-10.74Q102.52-12.48 107.12-12.48L107.12-12.48L112.64-12.48L112.64-12.80Q112.64-15.04 111.30-16.24Q109.96-17.44 107.32-17.44L107.32-17.44Q105.52-17.44 103.78-16.88Q102.04-16.32 100.84-15.32L100.84-15.32L98.88-18.96Q100.56-20.24 102.92-20.92Q105.28-21.60 107.92-21.60L107.92-21.60ZM107.24-3.36Q109.12-3.36 110.58-4.22Q112.04-5.08 112.64-6.68L112.64-6.68L112.64-9.16L107.48-9.16Q103.16-9.16 103.16-6.32L103.16-6.32Q103.16-4.96 104.24-4.16Q105.32-3.36 107.24-3.36L107.24-3.36Z M132.80-18.24Q134.96-21.60 140.40-21.60L140.40-21.60L140.40-16.84Q139.76-16.96 139.24-16.96L139.24-16.96Q136.32-16.96 134.68-15.26Q133.04-13.56 133.04-10.36L133.04-10.36L133.04 0L128.04 0L128.04-21.36L132.80-21.36L132.80-18.24Z M160.88-4.72L162.28-1.16Q161.40-0.44 160.14-0.08Q158.88 0.28 157.48 0.28L157.48 0.28Q153.96 0.28 152.04-1.56Q150.12-3.40 150.12-6.92L150.12-6.92L150.12-17.20L146.60-17.20L146.60-21.20L150.12-21.20L150.12-26.08L155.12-26.08L155.12-21.20L160.84-21.20L160.84-17.20L155.12-17.20L155.12-7.04Q155.12-5.48 155.88-4.66Q156.64-3.84 158.08-3.84L158.08-3.84Q159.76-3.84 160.88-4.72L160.88-4.72Z M195.04 0.28Q191.80 0.28 189.20-1.12Q186.60-2.52 185.14-5.02Q183.68-7.52 183.68-10.68L183.68-10.68Q183.68-13.84 185.14-16.32Q186.60-18.80 189.20-20.20Q191.80-21.60 195.04-21.60L195.04-21.60Q198.32-21.60 200.92-20.20Q203.52-18.80 204.98-16.32Q206.44-13.84 206.44-10.68L206.44-10.68Q206.44-7.52 204.98-5.02Q203.52-2.52 200.92-1.12Q198.32 0.28 195.04 0.28L195.04 0.28ZM195.04-4Q197.80-4 199.60-5.84Q201.40-7.68 201.40-10.68L201.40-10.68Q201.40-13.68 199.60-15.52Q197.80-17.36 195.04-17.36L195.04-17.36Q192.28-17.36 190.50-15.52Q188.72-13.68 188.72-10.68L188.72-10.68Q188.72-7.68 190.50-5.84Q192.28-4 195.04-4L195.04-4Z M223.92-25.92Q220.76-25.92 220.76-22.48L220.76-22.48L220.76-21.20L226.64-21.20L226.64-17.20L220.92-17.20L220.92 0L215.92 0L215.92-17.20L212.40-17.20L212.40-21.20L215.92-21.20L215.92-22.56Q215.92-26 217.92-27.98Q219.92-29.96 223.56-29.96L223.56-29.96Q226.44-29.96 228.08-28.80L228.08-28.80L226.68-25.04Q225.40-25.92 223.92-25.92L223.92-25.92Z M255.64 0.28Q253.04 0.28 250.56-0.40Q248.08-1.08 246.60-2.12L246.60-2.12L248.52-5.92Q249.96-4.96 251.98-4.38Q254-3.80 255.96-3.80L255.96-3.80Q260.44-3.80 260.44-6.16L260.44-6.16Q260.44-7.28 259.30-7.72Q258.16-8.16 255.64-8.56L255.64-8.56Q253-8.96 251.34-9.48Q249.68-10 248.46-11.30Q247.24-12.60 247.24-14.92L247.24-14.92Q247.24-17.96 249.78-19.78Q252.32-21.60 256.64-21.60L256.64-21.60Q258.84-21.60 261.04-21.10Q263.24-20.60 264.64-19.76L264.64-19.76L262.72-15.96Q260-17.56 256.60-17.56L256.60-17.56Q254.40-17.56 253.26-16.90Q252.12-16.24 252.12-15.16L252.12-15.16Q252.12-13.96 253.34-13.46Q254.56-12.96 257.12-12.52L257.12-12.52Q259.68-12.12 261.32-11.60Q262.96-11.08 264.14-9.84Q265.32-8.60 265.32-6.32L265.32-6.32Q265.32-3.32 262.72-1.52Q260.12 0.28 255.64 0.28L255.64 0.28Z M285.76-21.60Q289.80-21.60 292.24-19.24Q294.68-16.88 294.68-12.24L294.68-12.24L294.68 0L289.68 0L289.68-11.60Q289.68-14.40 288.36-15.82Q287.04-17.24 284.60-17.24L284.60-17.24Q281.84-17.24 280.24-15.58Q278.64-13.92 278.64-10.80L278.64-10.80L278.64 0L273.64 0L273.64-29.68L278.64-29.68L278.64-18.88Q279.88-20.20 281.70-20.90Q283.52-21.60 285.76-21.60L285.76-21.60Z M314.84 0.28Q311.60 0.28 309-1.12Q306.40-2.52 304.94-5.02Q303.48-7.52 303.48-10.68L303.48-10.68Q303.48-13.84 304.94-16.32Q306.40-18.80 309-20.20Q311.60-21.60 314.84-21.60L314.84-21.60Q318.12-21.60 320.72-20.20Q323.32-18.80 324.78-16.32Q326.24-13.84 326.24-10.68L326.24-10.68Q326.24-7.52 324.78-5.02Q323.32-2.52 320.72-1.12Q318.12 0.28 314.84 0.28L314.84 0.28ZM314.84-4Q317.60-4 319.40-5.84Q321.20-7.68 321.20-10.68L321.20-10.68Q321.20-13.68 319.40-15.52Q317.60-17.36 314.84-17.36L314.84-17.36Q312.08-17.36 310.30-15.52Q308.52-13.68 308.52-10.68L308.52-10.68Q308.52-7.68 310.30-5.84Q312.08-4 314.84-4L314.84-4Z M346.88-21.60Q350-21.60 352.46-20.24Q354.92-18.88 356.32-16.40Q357.72-13.92 357.72-10.68L357.72-10.68Q357.72-7.44 356.32-4.94Q354.92-2.44 352.46-1.08Q350 0.28 346.88 0.28L346.88 0.28Q342.56 0.28 340.04-2.60L340.04-2.60L340.04 7.76L335.04 7.76L335.04-21.36L339.80-21.36L339.80-18.56Q341.04-20.08 342.86-20.84Q344.68-21.60 346.88-21.60L346.88-21.60ZM346.32-4Q349.08-4 350.86-5.84Q352.64-7.68 352.64-10.68L352.64-10.68Q352.64-13.68 350.86-15.52Q349.08-17.36 346.32-17.36L346.32-17.36Q344.52-17.36 343.08-16.54Q341.64-15.72 340.80-14.20Q339.96-12.68 339.96-10.68L339.96-10.68Q339.96-8.68 340.80-7.16Q341.64-5.64 343.08-4.82Q344.52-4 346.32-4L346.32-4Z M378.32-21.60Q381.44-21.60 383.90-20.24Q386.36-18.88 387.76-16.40Q389.16-13.92 389.16-10.68L389.16-10.68Q389.16-7.44 387.76-4.94Q386.36-2.44 383.90-1.08Q381.44 0.28 378.32 0.28L378.32 0.28Q374 0.28 371.48-2.60L371.48-2.60L371.48 7.76L366.48 7.76L366.48-21.36L371.24-21.36L371.24-18.56Q372.48-20.08 374.30-20.84Q376.12-21.60 378.32-21.60L378.32-21.60ZM377.76-4Q380.52-4 382.30-5.84Q384.08-7.68 384.08-10.68L384.08-10.68Q384.08-13.68 382.30-15.52Q380.52-17.36 377.76-17.36L377.76-17.36Q375.96-17.36 374.52-16.54Q373.08-15.72 372.24-14.20Q371.40-12.68 371.40-10.68L371.40-10.68Q371.40-8.68 372.24-7.16Q373.08-5.64 374.52-4.82Q375.96-4 377.76-4L377.76-4Z M397.92 0L397.92-21.36L402.92-21.36L402.92 0L397.92 0ZM400.44-24.88Q399.08-24.88 398.16-25.74Q397.24-26.60 397.24-27.88L397.24-27.88Q397.24-29.16 398.16-30.02Q399.08-30.88 400.44-30.88L400.44-30.88Q401.80-30.88 402.72-30.06Q403.64-29.24 403.64-28L403.64-28Q403.64-26.68 402.74-25.78Q401.84-24.88 400.44-24.88L400.44-24.88Z M425.60-21.60Q429.64-21.60 432.08-19.24Q434.52-16.88 434.52-12.24L434.52-12.24L434.52 0L429.52 0L429.52-11.60Q429.52-14.40 428.20-15.82Q426.88-17.24 424.44-17.24L424.44-17.24Q421.68-17.24 420.08-15.58Q418.48-13.92 418.48-10.80L418.48-10.80L418.48 0L413.48 0L413.48-21.36L418.24-21.36L418.24-18.60Q419.48-20.08 421.36-20.84Q423.24-21.60 425.60-21.60L425.60-21.60Z M461.52-21.36L466.28-21.36L466.28-3.24Q466.28 8.04 454.76 8.04L454.76 8.04Q451.68 8.04 448.92 7.26Q446.16 6.48 444.36 5L444.36 5L446.60 1.24Q448.00 2.40 450.14 3.10Q452.28 3.80 454.48 3.80L454.48 3.80Q458.00 3.80 459.64 2.20Q461.28 0.60 461.28-2.68L461.28-2.68L461.28-3.80Q460.00-2.40 458.16-1.68Q456.32-0.96 454.12-0.96L454.12-0.96Q451.08-0.96 448.62-2.26Q446.16-3.56 444.74-5.92Q443.32-8.28 443.32-11.32L443.32-11.32Q443.32-14.36 444.74-16.70Q446.16-19.04 448.62-20.32Q451.08-21.60 454.12-21.60L454.12-21.60Q456.44-21.60 458.34-20.84Q460.24-20.08 461.52-18.52L461.52-18.52L461.52-21.36ZM454.88-5.20Q457.72-5.20 459.54-6.90Q461.36-8.60 461.36-11.32L461.36-11.32Q461.36-14 459.54-15.68Q457.72-17.36 454.88-17.36L454.88-17.36Q452.00-17.36 450.18-15.68Q448.36-14 448.36-11.32L448.36-11.32Q448.36-8.60 450.18-6.90Q452.00-5.20 454.88-5.20L454.88-5.20Z"></path></g>
</svg>
</g><g opacity="1" transform="rotate(0 88.21669999999999 16.124599999999987)">
<svg width="210.4723" height="29.8604" x="88.21669999999999" y="16.124599999999987" version="1.1" preserveAspectRatio="none" viewBox="1.12 -28.48 204.12 28.96">
  <g transform="matrix(1 0 0 1 0 0)" class="companyName"><path d="M12.52 0.48Q9.20 0.48 6.10-0.42Q3-1.32 1.12-2.76L1.12-2.76L3.32-7.64Q5.12-6.32 7.60-5.52Q10.08-4.72 12.56-4.72L12.56-4.72Q15.32-4.72 16.64-5.54Q17.96-6.36 17.96-7.72L17.96-7.72Q17.96-8.72 17.18-9.38Q16.40-10.04 15.18-10.44Q13.96-10.84 11.88-11.32L11.88-11.32Q8.68-12.08 6.64-12.84Q4.60-13.60 3.14-15.28Q1.68-16.96 1.68-19.76L1.68-19.76Q1.68-22.20 3-24.18Q4.32-26.16 6.98-27.32Q9.64-28.48 13.48-28.48L13.48-28.48Q16.16-28.48 18.72-27.84Q21.28-27.20 23.20-26L23.20-26L21.20-21.08Q17.32-23.28 13.44-23.28L13.44-23.28Q10.72-23.28 9.42-22.40Q8.12-21.52 8.12-20.08L8.12-20.08Q8.12-18.64 9.62-17.94Q11.12-17.24 14.20-16.56L14.20-16.56Q17.40-15.80 19.44-15.04Q21.48-14.28 22.94-12.64Q24.40-11 24.40-8.20L24.40-8.20Q24.40-5.80 23.06-3.82Q21.72-1.84 19.04-0.68Q16.36 0.48 12.52 0.48L12.52 0.48Z M49.48-10.68Q49.48-10.56 49.36-9L49.36-9L33.08-9Q33.52-7 35.16-5.84Q36.80-4.68 39.24-4.68L39.24-4.68Q40.92-4.68 42.22-5.18Q43.52-5.68 44.64-6.76L44.64-6.76L47.96-3.16Q44.92 0.32 39.08 0.32L39.08 0.32Q35.44 0.32 32.64-1.10Q29.84-2.52 28.32-5.04Q26.80-7.56 26.80-10.76L26.80-10.76Q26.80-13.92 28.30-16.46Q29.80-19 32.42-20.42Q35.04-21.84 38.28-21.84L38.28-21.84Q41.44-21.84 44-20.48Q46.56-19.12 48.02-16.58Q49.48-14.04 49.48-10.68L49.48-10.68ZM38.32-17.12Q36.20-17.12 34.76-15.92Q33.32-14.72 33-12.64L33-12.64L43.60-12.64Q43.28-14.68 41.84-15.90Q40.40-17.12 38.32-17.12L38.32-17.12Z M61.72-21.84Q66.72-21.84 69.40-19.46Q72.08-17.08 72.08-12.28L72.08-12.28L72.08 0L66.24 0L66.24-2.68Q64.48 0.32 59.68 0.32L59.68 0.32Q57.20 0.32 55.38-0.52Q53.56-1.36 52.60-2.84Q51.64-4.32 51.64-6.20L51.64-6.20Q51.64-9.20 53.90-10.92Q56.16-12.64 60.88-12.64L60.88-12.64L65.84-12.64Q65.84-14.68 64.60-15.78Q63.36-16.88 60.88-16.88L60.88-16.88Q59.16-16.88 57.50-16.34Q55.84-15.80 54.68-14.88L54.68-14.88L52.44-19.24Q54.20-20.48 56.66-21.16Q59.12-21.84 61.72-21.84L61.72-21.84ZM61.24-3.88Q62.84-3.88 64.08-4.62Q65.32-5.36 65.84-6.80L65.84-6.80L65.84-9L61.56-9Q57.72-9 57.72-6.48L57.72-6.48Q57.72-5.28 58.66-4.58Q59.60-3.88 61.24-3.88L61.24-3.88Z M105.28-21.84Q109.32-21.84 111.70-19.46Q114.08-17.08 114.08-12.32L114.08-12.32L114.08 0L107.84 0L107.84-11.36Q107.84-13.92 106.78-15.18Q105.72-16.44 103.76-16.44L103.76-16.44Q101.56-16.44 100.28-15.02Q99-13.60 99-10.80L99-10.80L99 0L92.76 0L92.76-11.36Q92.76-16.44 88.68-16.44L88.68-16.44Q86.52-16.44 85.24-15.02Q83.96-13.60 83.96-10.80L83.96-10.80L83.96 0L77.72 0L77.72-21.52L83.68-21.52L83.68-19.04Q84.88-20.40 86.62-21.12Q88.36-21.84 90.44-21.84L90.44-21.84Q92.72-21.84 94.56-20.94Q96.40-20.04 97.52-18.32L97.52-18.32Q98.84-20 100.86-20.92Q102.88-21.84 105.28-21.84L105.28-21.84Z M133.52 0.48Q129.24 0.48 125.78-1.38Q122.32-3.24 120.34-6.54Q118.36-9.84 118.36-14L118.36-14Q118.36-18.16 120.34-21.46Q122.32-24.76 125.78-26.62Q129.24-28.48 133.56-28.48L133.56-28.48Q137.20-28.48 140.14-27.20Q143.08-25.92 145.08-23.52L145.08-23.52L140.92-19.68Q138.08-22.96 133.88-22.96L133.88-22.96Q131.28-22.96 129.24-21.82Q127.20-20.68 126.06-18.64Q124.92-16.60 124.92-14L124.92-14Q124.92-11.40 126.06-9.36Q127.20-7.32 129.24-6.18Q131.28-5.04 133.88-5.04L133.88-5.04Q138.08-5.04 140.92-8.36L140.92-8.36L145.08-4.52Q143.08-2.08 140.12-0.80Q137.16 0.48 133.52 0.48L133.52 0.48Z M157.52-21.84Q162.52-21.84 165.20-19.46Q167.88-17.08 167.88-12.28L167.88-12.28L167.88 0L162.04 0L162.04-2.68Q160.28 0.32 155.48 0.32L155.48 0.32Q153 0.32 151.18-0.52Q149.36-1.36 148.40-2.84Q147.44-4.32 147.44-6.20L147.44-6.20Q147.44-9.20 149.70-10.92Q151.96-12.64 156.68-12.64L156.68-12.64L161.64-12.64Q161.64-14.68 160.40-15.78Q159.16-16.88 156.68-16.88L156.68-16.88Q154.96-16.88 153.30-16.34Q151.64-15.80 150.48-14.88L150.48-14.88L148.24-19.24Q150-20.48 152.46-21.16Q154.92-21.84 157.52-21.84L157.52-21.84ZM157.04-3.88Q158.64-3.88 159.88-4.62Q161.12-5.36 161.64-6.80L161.64-6.80L161.64-9L157.36-9Q153.52-9 153.52-6.48L153.52-6.48Q153.52-5.28 154.46-4.58Q155.40-3.88 157.04-3.88L157.04-3.88Z M179.48-18.68Q180.60-20.24 182.50-21.04Q184.40-21.84 186.88-21.84L186.88-21.84L186.88-16.08Q185.84-16.16 185.48-16.16L185.48-16.16Q182.80-16.16 181.28-14.66Q179.76-13.16 179.76-10.16L179.76-10.16L179.76 0L173.52 0L173.52-21.52L179.48-21.52L179.48-18.68Z M203.56-5.44L205.24-1.04Q204.32-0.36 202.98-0.02Q201.64 0.32 200.16 0.32L200.16 0.32Q196.32 0.32 194.22-1.64Q192.12-3.60 192.12-7.40L192.12-7.40L192.12-16.24L188.80-16.24L188.80-21.04L192.12-21.04L192.12-26.28L198.36-26.28L198.36-21.04L203.72-21.04L203.72-16.24L198.36-16.24L198.36-7.48Q198.36-6.12 199.06-5.38Q199.76-4.64 201.04-4.64L201.04-4.64Q202.52-4.64 203.56-5.44L203.56-5.44Z"></path></g>
</svg>
</g><g opacity="1" transform="rotate(0 76.2725 0)">
<svg width="2.3889" height="81.2203" x="76.2725" y="0" version="1.1" preserveAspectRatio="none" viewBox="0 0 2.3889 81.2203">
  <rect x="0" y="0" width="2.3889" height="81.2203" class="companyName shapeStroke-str" style="stroke-width:0;" rx="0px" ry="0px"></rect>
</svg>
</g></svg>